<svg width="100" height="129" viewBox="0 0 100 129" fill="none" xmlns="http://www.w3.org/2000/svg">
<path d="M15.1029 3.53989C15.1029 2.13766 16.2406 1 17.6428 1C37.618 1 56.4079 8.78372 70.5573 22.9119C71.0388 23.3934 71.2981 24.0284 71.2981 24.7057C71.2981 25.383 71.0335 26.018 70.5573 26.4995C70.298 26.7588 69.9964 26.9545 69.663 27.0762V27.2509H68.7582C68.0967 27.2509 67.4671 26.9916 66.9591 26.5101C53.7781 13.3344 36.2634 6.07979 17.6428 6.07979C16.2406 6.07979 15.1029 4.94213 15.1029 3.53989ZM65.2023 28.2668C65.1547 28.2192 65.0965 28.1716 65.0436 28.1292C52.3653 15.5197 35.5332 8.57206 17.6428 8.57206C16.2406 8.57206 15.1029 9.70972 15.1029 11.112C15.1029 12.5142 16.2406 13.6518 17.6428 13.6518C34.2527 13.6518 49.873 20.118 61.62 31.865L61.6676 31.9126L61.7206 31.955C73.4041 43.6914 79.8332 59.2694 79.8332 75.8263C79.8332 77.2286 80.9708 78.3662 82.3731 78.3662C83.7753 78.3662 84.913 77.2286 84.913 75.8263C84.913 57.8672 77.9124 40.9769 65.2023 28.2668ZM59.5669 33.3519C48.3226 22.2504 33.4272 16.1335 17.6269 16.1335C16.2247 16.1335 15.087 17.2712 15.087 18.6734C15.087 20.0757 16.2247 21.2133 17.6269 21.2133C32.2419 21.2133 45.9679 26.891 56.2651 37.2094C56.3286 37.2729 56.3868 37.3152 56.4397 37.3575C66.6098 47.6282 72.2294 61.2272 72.2717 75.6623C72.2611 75.7258 72.2558 75.784 72.2558 75.8475C72.2558 90.4519 66.5781 104.173 56.2598 114.486C55.2703 115.475 55.2703 117.084 56.2598 118.068C56.7625 118.549 57.3921 118.803 58.0483 118.809C58.7468 118.809 59.3659 118.549 59.8421 118.073C71.0547 106.861 77.2615 91.96 77.325 76.1015C77.3409 76.001 77.3462 75.9163 77.3462 75.8316C77.3462 59.8832 71.134 44.8873 59.858 33.6112C59.768 33.5212 59.6675 33.4366 59.5616 33.3572L59.5669 33.3519ZM69.7741 75.5671C69.7053 61.8781 64.3822 48.9828 54.7835 39.2413C54.7041 39.1302 54.6194 39.0349 54.5295 38.9397C44.6662 29.0923 31.5699 23.6738 17.6481 23.6738C16.2459 23.6738 15.1082 24.8115 15.1082 26.2137C15.1082 27.616 16.2459 28.7536 17.6481 28.7536C30.1941 28.7536 41.994 33.6323 50.8784 42.4955L50.926 42.5484C59.8209 51.4434 64.7155 63.2592 64.7155 75.8316V75.8475C64.7155 88.4147 59.8209 100.236 50.926 109.131C42.0311 118.026 30.21 122.92 17.6428 122.92C16.2406 122.92 15.1029 124.058 15.1029 125.46C15.1029 126.862 16.2406 128 17.6428 128H19.8758L19.8123 127.942C32.7869 127.407 44.9361 122.148 54.2279 112.988C54.339 112.909 54.4342 112.824 54.5242 112.734C64.3716 102.871 69.7953 89.7746 69.7953 75.8528C69.7953 75.7576 69.7847 75.6676 69.7741 75.5776V75.5671ZM45.5869 103.786C44.5974 104.776 44.5974 106.379 45.5869 107.369C46.0896 107.85 46.7193 108.104 47.3754 108.109C48.0739 108.109 48.693 107.85 49.1692 107.374C57.5932 98.9658 62.2338 87.7691 62.2338 75.8475V75.7734C62.2179 63.8888 57.5826 52.7133 49.1692 44.2999C49.1163 44.247 49.0634 44.2047 49.0105 44.1623C40.6183 35.8336 29.4798 31.2512 17.6428 31.2512C16.2406 31.2512 15.1029 32.3889 15.1029 33.7911C15.1029 35.1933 16.2406 36.331 17.6428 36.331C28.1992 36.331 38.126 40.4424 45.5869 47.9034L45.6346 47.951L45.6875 47.9933C53.0849 55.4596 57.154 65.344 57.154 75.8316V75.8475C57.154 86.4039 53.0426 96.3307 45.5816 103.792L45.5869 103.786ZM17.6269 43.8713C26.162 43.8713 34.1944 47.1996 40.232 53.2372L40.2796 53.2848L40.3272 53.3218C46.3066 59.3488 49.5978 67.3389 49.5978 75.8263C49.5978 77.218 50.7302 78.3557 52.1219 78.3662C53.5241 78.3609 54.6565 77.218 54.6565 75.8263C54.6565 65.9578 50.8255 56.6819 43.8725 49.6972L43.8196 49.6337C36.8296 42.6437 27.5272 38.7915 17.6322 38.7915C16.23 38.7915 15.0923 39.9292 15.0923 41.3314C15.0923 42.7336 16.2247 43.8713 17.6269 43.8713ZM15.1029 48.8929C15.1029 50.2951 16.2406 51.4328 17.6428 51.4328C24.1619 51.4328 30.2841 53.9727 34.8929 58.5762C35.4009 59.0577 36.0359 59.317 36.692 59.317C37.3852 59.317 38.0096 59.063 38.4911 58.5762C39.4806 57.5867 39.4806 55.9781 38.4911 54.9939C32.9192 49.422 25.5165 46.353 17.6375 46.353C16.2353 46.353 15.0976 47.4906 15.0976 48.8929H15.1029Z" fill="url(#paint0_radial_1_41)" style=""/>
<defs>
<radialGradient id="paint0_radial_1_41" cx="0" cy="0" r="1" gradientUnits="userSpaceOnUse" gradientTransform="translate(50 64.5027) scale(101.247 193.482)">
<stop offset="0.383" stop-color="#00A3FF" style="stop-color:#00A3FF;stop-color:color(display-p3 0.0000 0.6392 1.0000);stop-opacity:1;"/>
<stop offset="0.705" stop-color="#0057FF" style="stop-color:#0057FF;stop-color:color(display-p3 0.0000 0.3412 1.0000);stop-opacity:1;"/>
</radialGradient>
</defs>
</svg>
