<svg width="100" height="129" viewBox="0 0 100 129" fill="none" xmlns="http://www.w3.org/2000/svg">
<path d="M90.7294 21.3353C80.1824 20.4294 62.7412 17.6235 49.9824 9C37.2294 17.6235 19.7941 20.4235 9.24706 21.3353C4.01177 21.7882 0 26.1706 0 31.4235V57.7176C0 57.7176 0.264706 68.5529 7.48235 82.1765C8.3 83.7176 10.6471 83.0412 10.5353 81.3C10.2176 77.4882 10.2471 73.2647 11.0706 69.4235C15.5647 50.4353 38.2588 45.3118 50.2765 58.4588C57.1235 52.2588 67.8235 50.5529 75.8706 55.4882C78.0647 56.7765 79.9765 58.4529 81.5235 60.3882C82.5824 61.7176 82.2471 63.6823 80.8294 64.6235C73.7118 55.2412 58.2706 56.5353 53.9647 67.7059C52.4765 70.9294 47.5529 70.8882 46.0706 67.7176C39.2588 55.0412 21.5118 58.7118 19.4412 72.7765C17.7412 90.1941 25.8765 106.629 40.4 115.412C43.3765 117.165 46.4882 118.876 50.0529 120.447C99.0235 97.4647 99.9706 57.7118 99.9706 57.7118V31.4176C99.9706 26.1706 95.9647 21.7765 90.7353 21.3294L90.7294 21.3353Z" fill="url(#paint0_linear_1341_1057)"/>
<path style="mix-blend-mode:overlay" opacity="0.3" d="M50.2706 15.553C50.2706 13.3883 50.0647 11.2648 49.6824 9.20007C36.9529 17.6589 19.7176 20.4354 9.24706 21.3354C4.01177 21.7883 0 26.1707 0 31.4236V52.7001C2.82353 53.2589 5.75882 53.5589 8.76471 53.5589C31.6882 53.5589 50.2706 36.5413 50.2706 15.5471V15.553Z" fill="url(#paint1_linear_1341_1057)"/>
<path style="mix-blend-mode:multiply" d="M90.7176 21.3353C80.1705 20.4235 62.7411 17.6235 49.9823 9V58.1765C50.0764 58.2765 50.1764 58.3706 50.2705 58.4706C57.1176 52.2706 67.8176 50.5647 75.8647 55.5C78.0588 56.7882 79.9705 58.4647 81.5176 60.4C82.5764 61.7294 82.2411 63.6941 80.8235 64.6353C73.7058 55.2529 58.2647 56.5471 53.9588 67.7176C53.2117 69.3412 51.5941 70.1353 49.9823 70.1177V120.424C49.9823 120.424 50.0235 120.441 50.047 120.453C99.0176 97.4706 99.9647 57.7176 99.9647 57.7176V31.4235C99.9647 26.1647 95.9529 21.7824 90.7176 21.3294V21.3353Z" fill="url(#paint2_linear_1341_1057)"/>
<g style="mix-blend-mode:screen" opacity="0.1">
<path d="M9.24706 29.353C19.7941 28.4412 37.2235 25.6412 49.9824 17.0177C62.7412 25.6412 80.1706 28.4412 90.7176 29.353C95.9529 29.8059 99.9647 34.1883 99.9647 39.4412V31.4236C99.9647 26.1647 95.9529 21.7824 90.7176 21.3294C80.1706 20.4236 62.7353 17.6177 49.9824 8.99414C37.2294 17.6236 19.8 20.4236 9.24706 21.3353C4.01176 21.7883 0 26.1706 0 31.4236V39.4412C0 34.1824 4.01176 29.8 9.24706 29.3471V29.353Z" fill="white"/>
</g>
<path d="M62.7117 38.0412C66.3941 38.7529 69.0058 41.3706 69.7176 45.047C69.7588 45.2706 70.0647 45.2706 70.1117 45.047C70.8235 41.3647 73.4411 38.7529 77.1176 38.0412C77.3411 38 77.3411 37.6941 77.1176 37.647C73.4352 36.9353 70.8235 34.3176 70.1117 30.6412C70.0705 30.4176 69.7647 30.4176 69.7176 30.6412C69.0058 34.3235 66.3882 36.9353 62.7117 37.647C62.4882 37.6882 62.4882 37.9941 62.7117 38.0412Z" fill="white"/>
<g style="mix-blend-mode:multiply" opacity="0.1">
<path d="M10.4941 80.653C0.341176 64.7059 0 51.0236 0 51.0236V31.4236V57.7177C0 57.7177 0.264706 68.553 7.48235 82.1824C8.3 83.7236 10.6471 83.0471 10.5353 81.3059C10.5176 81.0883 10.5118 80.8648 10.5 80.6471L10.4941 80.653Z" fill="black"/>
<path d="M99.9647 31.4236V51.0236C99.9647 51.0236 99.0118 90.8118 49.9824 113.788C38.6765 108.488 29.953 102.294 23.1824 95.9059C26.7765 103.906 32.6647 110.753 40.3941 115.424C43.3706 117.177 46.4824 118.888 50.0471 120.459C99.0177 97.4765 99.9647 57.7236 99.9647 57.7236V31.4295V31.4236Z" fill="black"/>
</g>
<path d="M67.4176 55.5294C75.3882 55.7706 79.8412 60.5 81.847 63.4294C82.3 62.4647 82.2294 61.2941 81.5176 60.4C79.9706 58.4647 78.0588 56.7882 75.8647 55.5C67.8176 50.5647 57.1117 52.2647 50.2706 58.4706C38.2529 45.3235 15.5647 50.447 11.0647 69.4353C10.247 73.2765 10.2118 77.5 10.5294 81.3118C10.6882 83.8353 11.0353 86.3176 11.5412 88.7529C11.5882 88.9647 11.6706 89.1647 11.7941 89.3412C13.7235 92.1706 15.9823 95.0529 18.5941 97.9353C15.6823 89.9706 10.6412 71.6353 21.0412 60.9176C30.7882 50.8765 43.4 56.8412 48.5529 62.9706C49.3176 63.8765 50.7 63.9 51.4647 62.9941C53.8706 60.1412 59.2 55.2882 67.4117 55.5353L67.4176 55.5294Z" fill="url(#paint3_linear_1341_1057)"/>
<path style="mix-blend-mode:overlay" opacity="0.3" d="M33.6294 16.6588C24.6941 19.5177 15.6882 20.7824 9.25294 21.3353C4.01176 21.7882 0 26.1706 0 31.4235V50.0177C18.4824 50.0177 33.4823 35.1059 33.6294 16.653V16.6588Z" fill="url(#paint4_linear_1341_1057)"/>
<defs>
<linearGradient id="paint0_linear_1341_1057" x1="6.4" y1="8.44117" x2="88.6118" y2="90.6529" gradientUnits="userSpaceOnUse">
<stop stop-color="#E753FF"/>
<stop offset="1" stop-color="#3154F1"/>
</linearGradient>
<linearGradient id="paint1_linear_1341_1057" x1="0" y1="31.3765" x2="50.2706" y2="31.3765" gradientUnits="userSpaceOnUse">
<stop stop-color="#DBDBDB"/>
<stop offset="1" stop-color="white" stop-opacity="0"/>
</linearGradient>
<linearGradient id="paint2_linear_1341_1057" x1="8.16466" y1="99.4706" x2="66.5647" y2="53.5353" gradientUnits="userSpaceOnUse">
<stop stop-opacity="0.3"/>
<stop offset="1" stop-color="#3161F1" stop-opacity="0"/>
</linearGradient>
<linearGradient id="paint3_linear_1341_1057" x1="73.2823" y1="40.1706" x2="-8.74707" y2="111.041" gradientUnits="userSpaceOnUse">
<stop stop-color="#DBDBDB"/>
<stop offset="1" stop-color="white" stop-opacity="0"/>
</linearGradient>
<linearGradient id="paint4_linear_1341_1057" x1="0" y1="33.3353" x2="33.6294" y2="33.3353" gradientUnits="userSpaceOnUse">
<stop stop-color="#DBDBDB"/>
<stop offset="1" stop-color="white" stop-opacity="0"/>
</linearGradient>
</defs>
</svg>
