<svg width="500" height="190" viewBox="0 0 500 190" fill="none" xmlns="http://www.w3.org/2000/svg">
<g clip-path="url(#clip0_1284_121)">
<path d="M486.66 33.66C463.76 33.66 448.4 50.1 448.9 71.56V121.52H467.59V95.35H472.61C482.93 95.35 491.3 86.98 491.3 76.66H467.59V71.27C467.55 70.07 467.31 52.36 486.66 52.36C490.34 52.36 493.62 50.04 494.84 46.57L499.4 33.66H486.65H486.66Z" fill="#222222"/>
<path d="M382.96 121.52H364.27V34.78C374.59 34.78 382.96 43.15 382.96 53.47V58.43C387.42 56 392.52 54.62 398.05 54.59C419.52 54.07 435.97 69.47 435.97 92.35V121.51H417.28V90.76C417.28 81.27 409.59 73.58 400.1 73.58C390.6 73.58 382.91 81.28 382.92 90.78L382.96 121.51V121.52Z" fill="#222222"/>
<path d="M215.35 34.78V121.52H234.05V105.01L244.15 93.42L256.21 114.49C258.68 118.8 263.25 121.46 268.22 121.48L281.78 121.52L256.68 79.4L281.13 51.19H266.3C261.86 51.19 257.64 53.15 254.77 56.54L234.05 81.08V53.48C234.05 43.15 225.68 34.78 215.35 34.78Z" fill="#222222"/>
<path d="M317.49 50.0901C297.76 50.0901 281.77 66.0801 281.77 85.8101C281.77 105.54 297.76 121.53 317.49 121.53C323.65 121.53 329.45 119.97 334.51 117.22V121.53H353.2V85.8101C353.2 66.0801 337.21 50.0901 317.48 50.0901H317.49ZM334.51 85.8101L334.02 102.57C334 103.36 333.04 103.74 332.48 103.19L328.22 99.0101C324.99 101.64 320.79 103.11 316.24 102.78C308.23 102.21 301.52 95.8501 300.58 87.8701C299.13 75.5701 310.8 65.4901 323.42 69.7801C330.16 72.0701 334.5 78.6701 334.5 85.7901L334.51 85.8101Z" fill="#222222"/>
<path d="M237.6 151.76C237.56 153.96 235.69 155.69 233.49 155.69H215.77C215.54 155.69 215.35 155.5 215.35 155.27V142.76C215.35 142.53 215.54 142.34 215.77 142.34H233.29C235.42 142.34 237.24 143.97 237.38 146.09C237.45 147.16 237.09 147.93 236.47 148.69C237.19 149.43 237.62 150.65 237.6 151.77V151.76ZM217.82 145.22V147.47C217.82 147.59 217.91 147.68 218.03 147.68H233.57C234.32 147.68 234.93 147.06 234.91 146.3C234.89 145.57 234.25 145.01 233.52 145.01H218.03C217.91 145.01 217.82 145.11 217.82 145.22ZM235.13 151.73C235.15 150.97 234.55 150.14 233.79 150.14H218.03C217.91 150.14 217.82 150.23 217.82 150.35V152.81C217.82 152.93 217.91 153.02 218.03 153.02H233.73C234.46 153.02 235.1 152.46 235.12 151.73H235.13Z" fill="#ABAFBB"/>
<path d="M275.92 154.9C275.98 155.33 275.65 155.69 275.23 155.69H274.11C273.55 155.69 273 155.5 272.55 155.16L266.99 150.87C266.54 150.53 266 150.34 265.44 150.34H256.37C256.25 150.34 256.16 150.43 256.16 150.55V154.41C256.16 155.11 255.59 155.68 254.89 155.68H254.12C253.89 155.68 253.7 155.49 253.7 155.26V149.16C253.7 148.46 254.27 147.89 254.97 147.89H272.14C272.89 147.89 273.5 147.27 273.47 146.51C273.45 145.78 272.81 145 272.08 145H254.97C254.27 145 253.7 144.43 253.7 143.73V142.76C253.7 142.53 253.89 142.34 254.12 142.34H271.94C274.2 142.34 276.02 144.43 275.94 146.71C275.86 148.88 274.01 150.36 271.84 150.36H270.7C270.59 150.36 270.54 150.5 270.63 150.57L275.65 154.44C275.8 154.56 275.92 154.72 275.94 154.91L275.92 154.9Z" fill="#ABAFBB"/>
<path d="M298.38 142.33H307.9C311.42 142.33 314.27 145.18 314.27 148.7V149.32C314.27 152.84 311.42 155.69 307.9 155.69H298.38C294.86 155.69 292.01 152.84 292.01 149.32V148.7C292.01 145.18 294.86 142.33 298.38 142.33ZM311.79 149.32V148.69C311.79 146.65 310.14 145 308.1 145H298.18C296.14 145 294.49 146.65 294.49 148.69V149.32C294.49 151.36 296.14 153.01 298.18 153.01H308.1C310.14 153.01 311.79 151.36 311.79 149.32Z" fill="#ABAFBB"/>
<path d="M350.55 142.33H351.32C352.02 142.33 352.59 142.9 352.59 143.6V149.31C352.59 152.83 349.74 155.68 346.22 155.68H335.43C331.91 155.68 329.06 152.83 329.06 149.31V143.6C329.06 142.9 329.63 142.33 330.33 142.33H331.1C331.34 142.33 331.52 142.52 331.52 142.75V149.32C331.52 151.36 333.18 153.01 335.21 153.01H339.36C339.48 153.01 339.57 152.92 339.57 152.8V143.6C339.57 142.9 340.14 142.33 340.84 142.33H341.61C341.84 142.33 342.03 142.52 342.03 142.75V152.8C342.03 152.92 342.12 153.01 342.24 153.01H346.39C348.43 153.01 350.08 151.36 350.08 149.32V142.75C350.08 142.52 350.27 142.33 350.5 142.33H350.55Z" fill="#ABAFBB"/>
<path d="M389.44 145.01H372.48C371.74 145.01 371.15 145.82 371.15 146.56C371.15 147.3 371.75 147.9 372.48 147.9H386.92C389.13 147.9 390.93 149.48 390.93 151.69C390.93 153.9 389.14 155.7 386.92 155.7H369.31C369.08 155.7 368.89 155.51 368.89 155.28V154.31C368.89 153.61 369.46 153.04 370.16 153.04H387.12C387.86 153.04 388.46 152.44 388.46 151.71C388.46 150.98 387.86 150.37 387.12 150.37H372.69C370.48 150.37 368.68 148.79 368.68 146.58C368.68 144.37 370.48 142.36 372.69 142.36H390.29C390.52 142.36 390.71 142.55 390.71 142.78V143.75C390.71 144.45 390.14 145.02 389.44 145.02V145.01Z" fill="#ABAFBB"/>
<path d="M413.17 145.01C411.13 145.01 409.48 146.66 409.48 148.7V149.33C409.48 151.37 411.13 153.02 413.17 153.02H427.98C428.68 153.02 429.25 153.59 429.25 154.29V155.26C429.25 155.49 429.06 155.68 428.83 155.68H413.37C409.85 155.68 407 152.83 407 149.31V148.69C407 145.17 409.85 142.32 413.37 142.32H428.83C429.06 142.32 429.25 142.51 429.25 142.74V143.71C429.25 144.41 428.68 144.98 427.98 144.98H413.17V145.01ZM411.95 148.96C411.95 148.26 412.52 147.69 413.22 147.69H426.36C426.59 147.69 426.78 147.88 426.78 148.11V148.87C426.78 149.57 426.21 150.14 425.51 150.14H413.14C412.48 150.14 411.95 149.61 411.95 148.96Z" fill="#ABAFBB"/>
<path d="M467.58 154.9C467.64 155.33 467.31 155.69 466.89 155.69H465.77C465.21 155.69 464.66 155.5 464.21 155.16L458.65 150.87C458.2 150.53 457.66 150.34 457.1 150.34H448.03C447.91 150.34 447.82 150.43 447.82 150.55V154.41C447.82 155.11 447.25 155.68 446.55 155.68H445.78C445.55 155.68 445.36 155.49 445.36 155.26V149.16C445.36 148.46 445.93 147.89 446.63 147.89H463.8C464.55 147.89 465.16 147.27 465.13 146.51C465.11 145.78 464.47 145 463.74 145H446.63C445.93 145 445.36 144.43 445.36 143.73V142.76C445.36 142.53 445.55 142.34 445.78 142.34H463.6C465.86 142.34 467.68 144.43 467.6 146.71C467.52 148.88 465.67 150.36 463.5 150.36H462.36C462.25 150.36 462.2 150.5 462.29 150.57L467.31 154.44C467.46 154.56 467.58 154.72 467.6 154.91L467.58 154.9Z" fill="#ABAFBB"/>
<path d="M154.24 20.97C136.31 19.43 106.66 14.66 84.97 0C63.29 14.66 33.65 19.42 15.72 20.97C6.82 21.74 0 29.19 0 38.12V82.82C0 82.82 0.45 101.24 12.72 124.4C14.11 127.02 18.1 125.87 17.91 122.91C17.37 116.43 17.42 109.25 18.82 102.72C26.46 70.44 65.04 61.73 85.47 84.08C97.11 73.54 115.3 70.64 128.98 79.03C132.71 81.22 135.96 84.07 138.59 87.36C140.39 89.62 139.82 92.96 137.41 94.56C125.31 78.61 99.06 80.81 91.74 99.8C89.21 105.28 80.84 105.21 78.32 99.82C66.74 78.27 36.57 84.51 33.05 108.42C30.16 138.03 43.99 165.97 68.68 180.9C73.74 183.88 79.03 186.79 85.09 189.46C168.34 150.39 169.95 82.81 169.95 82.81V38.11C169.95 29.19 163.14 21.72 154.25 20.96L154.24 20.97Z" fill="url(#paint0_linear_1284_121)"/>
<path style="mix-blend-mode:overlay" opacity="0.3" d="M85.46 11.14C85.46 7.45997 85.11 3.84997 84.46 0.339966C62.82 14.72 33.52 19.44 15.72 20.97C6.82 21.74 0 29.19 0 38.12V74.29C4.8 75.24 9.79 75.75 14.9 75.75C53.87 75.75 85.46 46.82 85.46 11.13V11.14Z" fill="url(#paint1_linear_1284_121)"/>
<path style="mix-blend-mode:multiply" d="M154.22 20.97C136.29 19.42 106.66 14.66 84.97 0V83.6C85.13 83.77 85.3 83.93 85.46 84.1C97.1 73.56 115.29 70.66 128.97 79.05C132.7 81.24 135.95 84.09 138.58 87.38C140.38 89.64 139.81 92.98 137.4 94.58C125.3 78.63 99.05 80.83 91.73 99.82C90.46 102.58 87.71 103.93 84.97 103.9V189.42C84.97 189.42 85.04 189.45 85.08 189.47C168.33 150.4 169.94 82.82 169.94 82.82V38.12C169.94 29.18 163.12 21.73 154.22 20.96V20.97Z" fill="url(#paint2_linear_1284_121)"/>
<g style="mix-blend-mode:screen" opacity="0.1">
<path d="M15.72 34.6C33.65 33.05 63.28 28.29 84.97 13.63C106.66 28.29 136.29 33.05 154.22 34.6C163.12 35.37 169.94 42.82 169.94 51.75V38.12C169.94 29.18 163.12 21.73 154.22 20.96C136.29 19.42 106.65 14.65 84.97 -0.0100098C63.29 14.66 33.66 19.42 15.72 20.97C6.82 21.74 0 29.19 0 38.12V51.75C0 42.81 6.82 35.36 15.72 34.59V34.6Z" fill="white"/>
</g>
<path d="M106.61 49.37C112.87 50.58 117.31 55.03 118.52 61.28C118.59 61.66 119.11 61.66 119.19 61.28C120.4 55.02 124.85 50.58 131.1 49.37C131.48 49.3 131.48 48.78 131.1 48.7C124.84 47.49 120.4 43.04 119.19 36.79C119.12 36.41 118.6 36.41 118.52 36.79C117.31 43.05 112.86 47.49 106.61 48.7C106.23 48.77 106.23 49.29 106.61 49.37Z" fill="white"/>
<g style="mix-blend-mode:multiply" opacity="0.1">
<path d="M17.84 121.81C0.58 94.7 0 71.44 0 71.44V38.12V82.82C0 82.82 0.45 101.24 12.72 124.41C14.11 127.03 18.1 125.88 17.91 122.92C17.88 122.55 17.87 122.17 17.85 121.8L17.84 121.81Z" fill="black"/>
<path d="M169.94 38.12V71.44C169.94 71.44 168.32 139.08 84.97 178.14C65.75 169.13 50.92 158.6 39.41 147.74C45.52 161.34 55.53 172.98 68.67 180.92C73.73 183.9 79.02 186.81 85.08 189.48C168.33 150.41 169.94 82.83 169.94 82.83V38.13V38.12Z" fill="black"/>
</g>
<path d="M114.61 79.1C128.16 79.51 135.73 87.55 139.14 92.53C139.91 90.89 139.79 88.9 138.58 87.38C135.95 84.09 132.7 81.24 128.97 79.05C115.29 70.66 97.09 73.55 85.46 84.1C65.03 61.75 26.46 70.46 18.81 102.74C17.42 109.27 17.36 116.45 17.9 122.93C18.17 127.22 18.76 131.44 19.62 135.58C19.7 135.94 19.84 136.28 20.05 136.58C23.33 141.39 27.17 146.29 31.61 151.19C26.66 137.65 18.09 106.48 35.77 88.26C52.34 71.19 73.78 81.33 82.54 91.75C83.84 93.29 86.19 93.33 87.49 91.79C91.58 86.94 100.64 78.69 114.6 79.11L114.61 79.1Z" fill="url(#paint3_linear_1284_121)"/>
<path style="mix-blend-mode:overlay" opacity="0.3" d="M57.17 13.02C41.98 17.88 26.67 20.03 15.73 20.97C6.82 21.74 0 29.19 0 38.12V69.73C31.42 69.73 56.92 44.38 57.17 13.01V13.02Z" fill="url(#paint4_linear_1284_121)"/>
</g>
<defs>
<linearGradient id="paint0_linear_1284_121" x1="10.88" y1="-0.950003" x2="150.64" y2="138.81" gradientUnits="userSpaceOnUse">
<stop stop-color="#E753FF"/>
<stop offset="1" stop-color="#3154F1"/>
</linearGradient>
<linearGradient id="paint1_linear_1284_121" x1="0" y1="38.04" x2="85.46" y2="38.04" gradientUnits="userSpaceOnUse">
<stop stop-color="#DBDBDB"/>
<stop offset="1" stop-color="white" stop-opacity="0"/>
</linearGradient>
<linearGradient id="paint2_linear_1284_121" x1="13.88" y1="153.8" x2="113.16" y2="75.71" gradientUnits="userSpaceOnUse">
<stop stop-opacity="0.3"/>
<stop offset="1" stop-color="#3161F1" stop-opacity="0"/>
</linearGradient>
<linearGradient id="paint3_linear_1284_121" x1="124.58" y1="52.99" x2="-14.87" y2="173.47" gradientUnits="userSpaceOnUse">
<stop stop-color="#DBDBDB"/>
<stop offset="1" stop-color="white" stop-opacity="0"/>
</linearGradient>
<linearGradient id="paint4_linear_1284_121" x1="0" y1="41.37" x2="57.17" y2="41.37" gradientUnits="userSpaceOnUse">
<stop stop-color="#DBDBDB"/>
<stop offset="1" stop-color="white" stop-opacity="0"/>
</linearGradient>
<clipPath id="clip0_1284_121">
<rect width="499.41" height="189.48" fill="white"/>
</clipPath>
</defs>
</svg>
