<svg width="356" height="356" viewBox="0 0 356 356" fill="none" xmlns="http://www.w3.org/2000/svg">
<g clip-path="url(#clip0_1285_66)">
<path d="M268.35 0H86.68C38.808 0 0 38.808 0 86.68V268.35C0 316.222 38.808 355.03 86.68 355.03H268.35C316.222 355.03 355.03 316.222 355.03 268.35V86.68C355.03 38.808 316.222 0 268.35 0Z" fill="white"/>
<path d="M260.58 101.28C238.93 99.42 203.12 93.66 176.93 75.95C150.74 93.65 114.96 99.41 93.3 101.27C82.55 102.2 74.31 111.2 74.31 121.99V175.98C74.31 175.98 74.85 198.22 89.67 226.2C91.35 229.37 96.17 227.98 95.94 224.41C95.29 216.58 95.35 207.91 97.04 200.03C106.27 161.04 152.86 150.53 177.53 177.52C191.59 164.79 213.56 161.29 230.08 171.43C234.58 174.08 238.51 177.52 241.68 181.5C243.86 184.23 243.17 188.26 240.26 190.19C225.65 170.93 193.95 173.58 185.1 196.52C182.04 203.14 171.94 203.06 168.9 196.55C154.92 170.52 118.48 178.06 114.23 206.93C110.74 242.7 127.44 276.43 157.25 294.46C163.36 298.06 169.75 301.57 177.07 304.79C277.6 257.61 279.56 175.99 279.56 175.99V122C279.56 111.22 271.33 102.21 260.6 101.28H260.58Z" fill="url(#paint0_linear_1285_66)"/>
<path style="mix-blend-mode:overlay" opacity="0.3" d="M177.52 89.4C177.52 84.95 177.09 80.6 176.31 76.36C150.18 93.74 114.79 99.43 93.3 101.28C82.55 102.21 74.31 111.21 74.31 122V165.69C80.11 166.83 86.13 167.45 92.3 167.45C139.36 167.45 177.51 132.51 177.51 89.41L177.52 89.4Z" fill="url(#paint1_linear_1285_66)"/>
<path style="mix-blend-mode:multiply" d="M260.56 101.28C238.91 99.41 203.11 93.66 176.93 75.96V176.92C177.12 177.13 177.33 177.31 177.52 177.52C191.58 164.79 213.55 161.29 230.07 171.43C234.57 174.08 238.5 177.52 241.67 181.5C243.85 184.23 243.16 188.26 240.25 190.19C225.64 170.93 193.94 173.58 185.09 196.52C183.55 199.85 180.23 201.48 176.92 201.45V304.73C176.92 304.73 177.01 304.77 177.05 304.79C277.58 257.61 279.54 175.99 279.54 175.99V122C279.54 111.21 271.31 102.21 260.56 101.28Z" fill="url(#paint2_linear_1285_66)"/>
<g style="mix-blend-mode:screen" opacity="0.1">
<path d="M93.3 117.75C114.95 115.88 150.74 110.12 176.93 92.43C203.12 110.13 238.91 115.89 260.57 117.75C271.32 118.68 279.55 127.68 279.55 138.47V122C279.55 111.21 271.32 102.21 260.57 101.28C238.92 99.41 203.12 93.66 176.93 75.96C150.74 93.66 114.96 99.42 93.3 101.28C82.55 102.21 74.31 111.21 74.31 122V138.47C74.31 127.68 82.55 118.68 93.3 117.75Z" fill="white"/>
</g>
<path d="M203.06 135.58C210.62 137.05 215.98 142.41 217.45 149.97C217.54 150.43 218.17 150.43 218.26 149.97C219.73 142.41 225.09 137.05 232.65 135.58C233.11 135.49 233.11 134.86 232.65 134.77C225.09 133.3 219.73 127.94 218.26 120.38C218.17 119.92 217.54 119.92 217.45 120.38C215.98 127.94 210.62 133.3 203.06 134.77C202.6 134.86 202.6 135.49 203.06 135.58Z" fill="white"/>
<g style="mix-blend-mode:multiply" opacity="0.1">
<path d="M95.86 223.06C75.01 190.32 74.31 162.23 74.31 162.23V121.99V175.98C74.31 175.98 74.85 198.23 89.67 226.2C91.35 229.37 96.17 227.98 95.94 224.41C95.9 223.97 95.9 223.5 95.86 223.06Z" fill="black"/>
<path d="M279.54 121.99V162.23C279.54 162.23 277.59 243.91 176.92 291.09C153.71 280.21 135.8 267.49 121.9 254.37C129.27 270.79 141.37 284.86 157.23 294.45C163.34 298.05 169.73 301.56 177.05 304.78C277.58 257.6 279.54 175.98 279.54 175.98V121.99Z" fill="black"/>
</g>
<path d="M212.72 171.49C229.08 171.99 238.23 181.69 242.35 187.71C243.28 185.73 243.14 183.32 241.67 181.49C238.5 177.52 234.56 174.07 230.07 171.42C213.55 161.28 191.57 164.78 177.52 177.51C152.85 150.52 106.26 161.04 97.03 200.02C95.35 207.91 95.28 216.58 95.93 224.4C96.26 229.58 96.96 234.68 98.01 239.67C98.1 240.1 98.27 240.51 98.52 240.88C102.48 246.69 107.12 252.61 112.48 258.52C106.5 242.17 96.15 204.53 117.51 182.52C137.52 161.91 163.42 174.15 173.99 186.73C175.56 188.59 178.4 188.63 179.97 186.77C184.91 180.92 195.85 170.95 212.72 171.46V171.49Z" fill="url(#paint3_linear_1285_66)"/>
<path style="mix-blend-mode:overlay" opacity="0.3" d="M143.35 91.6801C125 97.5501 106.52 100.14 93.3 101.28C82.55 102.21 74.31 111.21 74.31 122V160.17C112.26 160.17 143.05 129.55 143.35 91.6801Z" fill="url(#paint4_linear_1285_66)"/>
</g>
<defs>
<linearGradient id="paint0_linear_1285_66" x1="87.45" y1="74.81" x2="256.23" y2="243.59" gradientUnits="userSpaceOnUse">
<stop stop-color="#E753FF"/>
<stop offset="1" stop-color="#3154F1"/>
</linearGradient>
<linearGradient id="paint1_linear_1285_66" x1="74.31" y1="121.9" x2="177.52" y2="121.9" gradientUnits="userSpaceOnUse">
<stop stop-color="#DBDBDB"/>
<stop offset="1" stop-color="white" stop-opacity="0"/>
</linearGradient>
<linearGradient id="paint2_linear_1285_66" x1="91.07" y1="261.7" x2="210.97" y2="167.39" gradientUnits="userSpaceOnUse">
<stop stop-opacity="0.3"/>
<stop offset="1" stop-color="#3161F1" stop-opacity="0"/>
</linearGradient>
<linearGradient id="paint3_linear_1285_66" x1="224.76" y1="139.95" x2="56.35" y2="285.45" gradientUnits="userSpaceOnUse">
<stop stop-color="#DBDBDB"/>
<stop offset="1" stop-color="white" stop-opacity="0"/>
</linearGradient>
<linearGradient id="paint4_linear_1285_66" x1="-1.52325e-05" y1="125.92" x2="143.35" y2="125.92" gradientUnits="userSpaceOnUse">
<stop stop-color="#DBDBDB"/>
<stop offset="1" stop-color="white" stop-opacity="0"/>
</linearGradient>
<clipPath id="clip0_1285_66">
<rect width="355.03" height="355.03" fill="white"/>
</clipPath>
</defs>
</svg>
