<svg width="500" height="190" viewBox="0 0 500 190" fill="none" xmlns="http://www.w3.org/2000/svg">
<g clip-path="url(#clip0_1285_81)">
<path d="M486.66 33.66C463.76 33.66 448.4 50.1 448.9 71.56V121.52H467.59V95.35H472.61C482.93 95.35 491.3 86.98 491.3 76.66H467.59V71.27C467.55 70.07 467.31 52.36 486.66 52.36C490.34 52.36 493.62 50.04 494.84 46.57L499.4 33.66H486.65H486.66Z" fill="#222222"/>
<path d="M382.96 121.52H364.27V34.78C374.59 34.78 382.96 43.15 382.96 53.47V58.43C387.42 56 392.52 54.62 398.05 54.59C419.52 54.07 435.97 69.47 435.97 92.35V121.51H417.28V90.76C417.28 81.27 409.59 73.58 400.1 73.58C390.6 73.58 382.91 81.28 382.92 90.78L382.96 121.51V121.52Z" fill="#222222"/>
<path d="M215.35 34.78V121.52H234.05V105.01L244.15 93.42L256.21 114.49C258.68 118.8 263.25 121.46 268.22 121.48L281.78 121.52L256.68 79.4L281.13 51.19H266.3C261.86 51.19 257.64 53.15 254.77 56.54L234.05 81.08V53.48C234.05 43.15 225.68 34.78 215.35 34.78Z" fill="#222222"/>
<path d="M317.49 50.09C297.76 50.09 281.77 66.08 281.77 85.81C281.77 105.54 297.76 121.53 317.49 121.53C323.65 121.53 329.45 119.97 334.51 117.22V121.53H353.2V85.81C353.2 66.08 337.21 50.09 317.48 50.09H317.49ZM334.51 85.81L334.02 102.57C334 103.36 333.04 103.74 332.48 103.19L328.22 99.01C324.99 101.64 320.79 103.11 316.24 102.78C308.23 102.21 301.52 95.85 300.58 87.87C299.13 75.57 310.8 65.49 323.42 69.78C330.16 72.07 334.5 78.67 334.5 85.79L334.51 85.81Z" fill="#222222"/>
<path d="M237.6 151.76C237.56 153.96 235.69 155.69 233.49 155.69H215.77C215.54 155.69 215.35 155.5 215.35 155.27V142.76C215.35 142.53 215.54 142.34 215.77 142.34H233.29C235.42 142.34 237.24 143.97 237.38 146.09C237.45 147.16 237.09 147.93 236.47 148.69C237.19 149.43 237.62 150.65 237.6 151.77V151.76ZM217.82 145.22V147.47C217.82 147.59 217.91 147.68 218.03 147.68H233.57C234.32 147.68 234.93 147.06 234.91 146.3C234.89 145.57 234.25 145.01 233.52 145.01H218.03C217.91 145.01 217.82 145.11 217.82 145.22ZM235.13 151.73C235.15 150.97 234.55 150.14 233.79 150.14H218.03C217.91 150.14 217.82 150.23 217.82 150.35V152.81C217.82 152.93 217.91 153.02 218.03 153.02H233.73C234.46 153.02 235.1 152.46 235.12 151.73H235.13Z" fill="#ABAFBB"/>
<path d="M275.92 154.9C275.98 155.33 275.65 155.69 275.23 155.69H274.11C273.55 155.69 273 155.5 272.55 155.16L266.99 150.87C266.54 150.53 266 150.34 265.44 150.34H256.37C256.25 150.34 256.16 150.43 256.16 150.55V154.41C256.16 155.11 255.59 155.68 254.89 155.68H254.12C253.89 155.68 253.7 155.49 253.7 155.26V149.16C253.7 148.46 254.27 147.89 254.97 147.89H272.14C272.89 147.89 273.5 147.27 273.47 146.51C273.45 145.78 272.81 145 272.08 145H254.97C254.27 145 253.7 144.43 253.7 143.73V142.76C253.7 142.53 253.89 142.34 254.12 142.34H271.94C274.2 142.34 276.02 144.43 275.94 146.71C275.86 148.88 274.01 150.36 271.84 150.36H270.7C270.59 150.36 270.54 150.5 270.63 150.57L275.65 154.44C275.8 154.56 275.92 154.72 275.94 154.91L275.92 154.9Z" fill="#ABAFBB"/>
<path d="M298.38 142.33H307.9C311.42 142.33 314.27 145.18 314.27 148.7V149.32C314.27 152.84 311.42 155.69 307.9 155.69H298.38C294.86 155.69 292.01 152.84 292.01 149.32V148.7C292.01 145.18 294.86 142.33 298.38 142.33ZM311.79 149.32V148.69C311.79 146.65 310.14 145 308.1 145H298.18C296.14 145 294.49 146.65 294.49 148.69V149.32C294.49 151.36 296.14 153.01 298.18 153.01H308.1C310.14 153.01 311.79 151.36 311.79 149.32Z" fill="#ABAFBB"/>
<path d="M350.55 142.33H351.32C352.02 142.33 352.59 142.9 352.59 143.6V149.31C352.59 152.83 349.74 155.68 346.22 155.68H335.43C331.91 155.68 329.06 152.83 329.06 149.31V143.6C329.06 142.9 329.63 142.33 330.33 142.33H331.1C331.34 142.33 331.52 142.52 331.52 142.75V149.32C331.52 151.36 333.18 153.01 335.21 153.01H339.36C339.48 153.01 339.57 152.92 339.57 152.8V143.6C339.57 142.9 340.14 142.33 340.84 142.33H341.61C341.84 142.33 342.03 142.52 342.03 142.75V152.8C342.03 152.92 342.12 153.01 342.24 153.01H346.39C348.43 153.01 350.08 151.36 350.08 149.32V142.75C350.08 142.52 350.27 142.33 350.5 142.33H350.55Z" fill="#ABAFBB"/>
<path d="M389.44 145.01H372.48C371.74 145.01 371.15 145.82 371.15 146.56C371.15 147.3 371.75 147.9 372.48 147.9H386.92C389.13 147.9 390.93 149.48 390.93 151.69C390.93 153.9 389.14 155.7 386.92 155.7H369.31C369.08 155.7 368.89 155.51 368.89 155.28V154.31C368.89 153.61 369.46 153.04 370.16 153.04H387.12C387.86 153.04 388.46 152.44 388.46 151.71C388.46 150.98 387.86 150.37 387.12 150.37H372.69C370.48 150.37 368.68 148.79 368.68 146.58C368.68 144.37 370.48 142.36 372.69 142.36H390.29C390.52 142.36 390.71 142.55 390.71 142.78V143.75C390.71 144.45 390.14 145.02 389.44 145.02V145.01Z" fill="#ABAFBB"/>
<path d="M413.17 145.01C411.13 145.01 409.48 146.66 409.48 148.7V149.33C409.48 151.37 411.13 153.02 413.17 153.02H427.98C428.68 153.02 429.25 153.59 429.25 154.29V155.26C429.25 155.49 429.06 155.68 428.83 155.68H413.37C409.85 155.68 407 152.83 407 149.31V148.69C407 145.17 409.85 142.32 413.37 142.32H428.83C429.06 142.32 429.25 142.51 429.25 142.74V143.71C429.25 144.41 428.68 144.98 427.98 144.98H413.17V145.01ZM411.95 148.96C411.95 148.26 412.52 147.69 413.22 147.69H426.36C426.59 147.69 426.78 147.88 426.78 148.11V148.87C426.78 149.57 426.21 150.14 425.51 150.14H413.14C412.48 150.14 411.95 149.61 411.95 148.96Z" fill="#ABAFBB"/>
<path d="M467.58 154.9C467.64 155.33 467.31 155.69 466.89 155.69H465.77C465.21 155.69 464.66 155.5 464.21 155.16L458.65 150.87C458.2 150.53 457.66 150.34 457.1 150.34H448.03C447.91 150.34 447.82 150.43 447.82 150.55V154.41C447.82 155.11 447.25 155.68 446.55 155.68H445.78C445.55 155.68 445.36 155.49 445.36 155.26V149.16C445.36 148.46 445.93 147.89 446.63 147.89H463.8C464.55 147.89 465.16 147.27 465.13 146.51C465.11 145.78 464.47 145 463.74 145H446.63C445.93 145 445.36 144.43 445.36 143.73V142.76C445.36 142.53 445.55 142.34 445.78 142.34H463.6C465.86 142.34 467.68 144.43 467.6 146.71C467.52 148.88 465.67 150.36 463.5 150.36H462.36C462.25 150.36 462.2 150.5 462.29 150.57L467.31 154.44C467.46 154.56 467.58 154.72 467.6 154.91L467.58 154.9Z" fill="#ABAFBB"/>
<path d="M154.24 20.97C136.31 19.43 106.66 14.66 84.97 0C63.29 14.66 33.65 19.42 15.72 20.97C6.82 21.74 0 29.19 0 38.12V82.82C0 82.82 0.45 101.24 12.72 124.4C14.11 127.02 18.1 125.87 17.91 122.91C17.37 116.43 17.42 109.25 18.82 102.72C26.46 70.44 65.04 61.73 85.47 84.08C97.11 73.54 115.3 70.64 128.98 79.03C132.71 81.22 135.96 84.07 138.59 87.36C140.39 89.62 139.82 92.96 137.41 94.56C125.31 78.61 99.06 80.81 91.74 99.8C89.21 105.28 80.84 105.21 78.32 99.82C66.74 78.27 36.57 84.51 33.05 108.42C30.16 138.03 43.99 165.97 68.68 180.9C73.74 183.88 79.03 186.79 85.09 189.46C168.34 150.39 169.95 82.81 169.95 82.81V38.11C169.95 29.19 163.14 21.72 154.25 20.96L154.24 20.97ZM131.11 49.37C124.85 50.58 120.41 55.03 119.2 61.28C119.13 61.66 118.61 61.66 118.53 61.28C117.32 55.02 112.87 50.58 106.62 49.37C106.24 49.3 106.24 48.78 106.62 48.7C112.88 47.49 117.32 43.04 118.53 36.79C118.6 36.41 119.12 36.41 119.2 36.79C120.41 43.05 124.86 47.49 131.11 48.7C131.49 48.77 131.49 49.29 131.11 49.37Z" fill="#222222"/>
</g>
<defs>
<clipPath id="clip0_1285_81">
<rect width="499.41" height="189.48" fill="white"/>
</clipPath>
</defs>
</svg>
