<svg width="348" height="348" viewBox="0 0 348 348" fill="none" xmlns="http://www.w3.org/2000/svg">
<g clip-path="url(#clip0_1285_52)">
<path d="M262.8 0H84.89C38.0065 0 0 38.0065 0 84.89V262.8C0 309.683 38.0065 347.69 84.89 347.69H262.8C309.683 347.69 347.69 309.683 347.69 262.8V84.89C347.69 38.0065 309.683 0 262.8 0Z" fill="url(#paint0_linear_1285_52)"/>
<path style="mix-blend-mode:overlay" opacity="0.3" d="M48.62 170.18C149.28 170.18 232.71 96.42 247.83 0H84.89C38.01 0 0 38.01 0 84.89V164.26C15.57 168.12 31.86 170.18 48.62 170.18Z" fill="url(#paint1_linear_1285_52)"/>
<path style="mix-blend-mode:overlay" opacity="0.3" d="M0 146.78C3.71 147.05 7.45 147.19 11.22 147.19C94.1 147.19 161.73 81.94 165.57 0.0100117H84.89C38.01 1.17386e-05 0 38.01 0 84.89V146.77V146.78Z" fill="url(#paint2_linear_1285_52)"/>
<path d="M255.18 99.19C233.97 97.36 198.92 91.72 173.27 74.39C147.63 91.72 112.58 97.36 91.37 99.19C80.84 100.1 72.77 108.91 72.77 119.48V172.35C72.77 172.35 73.49 201.86 96.12 235.38C95.02 230.28 94.28 225.07 93.94 219.78C93.3 212.12 93.36 203.63 95.01 195.9C104.05 157.72 149.67 147.42 173.83 173.85C187.6 161.38 209.11 157.96 225.3 167.88C229.71 170.47 233.56 173.85 236.67 177.74C238.8 180.41 238.13 184.36 235.28 186.25C220.97 167.39 189.93 169.98 181.26 192.45C178.27 198.93 168.37 198.85 165.39 192.48C151.7 166.99 116.02 174.37 111.85 202.65C108.43 237.68 124.79 270.71 153.99 288.37C159.97 291.89 166.23 295.33 173.4 298.49C271.86 252.28 273.77 172.35 273.77 172.35V119.48C273.77 108.91 265.71 100.1 255.18 99.19ZM227.84 132.78C220.44 134.22 215.19 139.47 213.75 146.87C213.66 147.32 213.05 147.32 212.96 146.87C211.52 139.47 206.27 134.22 198.87 132.78C198.42 132.69 198.42 132.08 198.87 131.99C206.27 130.55 211.52 125.3 212.96 117.9C213.05 117.45 213.66 117.45 213.75 117.9C215.19 125.3 220.44 130.55 227.84 131.99C228.29 132.08 228.29 132.69 227.84 132.78Z" fill="white"/>
<path style="mix-blend-mode:multiply" d="M255.18 99.19C233.97 97.36 198.92 91.72 173.27 74.39V173.26C173.46 173.46 173.66 173.64 173.85 173.85C187.62 161.38 209.13 157.96 225.32 167.88C229.73 170.47 233.58 173.85 236.69 177.74C238.82 180.41 238.15 184.36 235.3 186.25C220.99 167.39 189.95 169.98 181.28 192.45C179.77 195.71 176.52 197.31 173.28 197.28V298.42C173.28 298.42 173.36 298.46 173.41 298.48C271.87 252.27 273.78 172.34 273.78 172.34V119.47C273.78 108.9 265.72 100.09 255.19 99.18L255.18 99.19Z" fill="url(#paint3_linear_1285_52)"/>
<g opacity="0.1">
<path d="M91.37 115.31C112.58 113.48 147.62 107.84 173.27 90.51C198.92 107.84 233.97 113.48 255.18 115.31C265.71 116.22 273.77 125.03 273.77 135.6V119.47C273.77 108.9 265.71 100.09 255.18 99.18C233.97 97.35 198.92 91.71 173.27 74.38C147.63 91.71 112.58 97.35 91.37 99.18C80.84 100.09 72.77 108.9 72.77 119.47V135.6C72.77 125.03 80.84 116.22 91.37 115.31Z" fill="url(#paint4_linear_1285_52)"/>
</g>
<g opacity="0.1">
<path d="M93.88 218.45C73.47 186.39 72.78 158.88 72.78 158.88V119.47V172.34C72.78 172.34 73.5 201.85 96.13 235.37C95.03 230.27 94.29 225.06 93.95 219.77C93.91 219.34 93.91 218.88 93.87 218.45H93.88Z" fill="#E753FF"/>
<path d="M273.77 119.47V158.88C273.77 158.88 271.86 238.87 173.27 285.07C150.54 274.42 133 261.96 119.38 249.11C126.6 265.19 138.45 278.97 153.98 288.36C159.96 291.88 166.22 295.32 173.39 298.48C271.85 252.27 273.76 172.34 273.76 172.34V119.47H273.77Z" fill="#E753FF"/>
</g>
<path opacity="0.2" d="M208.33 167.94C224.35 168.43 233.31 177.93 237.35 183.83C238.26 181.89 238.12 179.53 236.69 177.74C233.58 173.85 229.73 170.47 225.32 167.88C209.14 157.95 187.62 161.38 173.85 173.85C149.69 147.42 104.06 157.72 95.03 195.9C93.38 203.62 93.32 212.11 93.96 219.78C94.3 225.07 95.03 230.29 96.14 235.38C100.1 241.24 104.76 247.23 110.18 253.2C104.32 237.19 94.19 200.32 115.1 178.78C134.7 158.58 160.08 170.6 170.43 182.93C171.97 184.76 174.73 184.77 176.28 182.95C181.12 177.22 191.83 167.46 208.34 167.96L208.33 167.94Z" fill="url(#paint5_linear_1285_52)"/>
</g>
<defs>
<linearGradient id="paint0_linear_1285_52" x1="-19.08" y1="-5.55" x2="335.68" y2="324.34" gradientUnits="userSpaceOnUse">
<stop stop-color="#E753FF"/>
<stop offset="1" stop-color="#3154F1"/>
</linearGradient>
<linearGradient id="paint1_linear_1285_52" x1="0" y1="85.09" x2="247.84" y2="85.09" gradientUnits="userSpaceOnUse">
<stop stop-color="#DBDBDB"/>
<stop offset="1" stop-color="white" stop-opacity="0"/>
</linearGradient>
<linearGradient id="paint2_linear_1285_52" x1="0" y1="73.59" x2="165.57" y2="73.59" gradientUnits="userSpaceOnUse">
<stop stop-color="#DBDBDB"/>
<stop offset="1" stop-color="white" stop-opacity="0"/>
</linearGradient>
<linearGradient id="paint3_linear_1285_52" x1="89.18" y1="256.29" x2="206.61" y2="163.93" gradientUnits="userSpaceOnUse">
<stop stop-color="#A800FF" stop-opacity="0.3"/>
<stop offset="1" stop-color="#3161F1" stop-opacity="0"/>
</linearGradient>
<linearGradient id="paint4_linear_1285_52" x1="72.77" y1="104.99" x2="273.77" y2="104.99" gradientUnits="userSpaceOnUse">
<stop stop-color="#E753FF"/>
<stop offset="1" stop-color="#3154F1"/>
</linearGradient>
<linearGradient id="paint5_linear_1285_52" x1="224.84" y1="150.56" x2="73.64" y2="230.41" gradientUnits="userSpaceOnUse">
<stop stop-color="white"/>
<stop offset="1" stop-color="white" stop-opacity="0"/>
</linearGradient>
<clipPath id="clip0_1285_52">
<rect width="347.69" height="347.69" fill="white"/>
</clipPath>
</defs>
</svg>
