<svg width="170" height="189" viewBox="0 0 170 189" fill="none" xmlns="http://www.w3.org/2000/svg">
<g clip-path="url(#clip0_1285_24)">
<path d="M154.24 20.97C136.31 19.43 106.66 14.66 84.97 0C63.29 14.66 33.65 19.42 15.72 20.97C6.82 21.74 0 29.19 0 38.12V82.82C0 82.82 0.45 101.24 12.72 124.4C14.11 127.02 18.1 125.87 17.91 122.91C17.37 116.43 17.42 109.25 18.82 102.72C26.46 70.44 65.04 61.73 85.47 84.08C97.11 73.54 115.3 70.64 128.98 79.03C132.71 81.22 135.96 84.07 138.59 87.36C140.39 89.62 139.82 92.96 137.41 94.56C125.31 78.61 99.06 80.81 91.74 99.8C89.21 105.28 80.84 105.21 78.32 99.82C66.74 78.27 36.57 84.51 33.05 108.42C30.16 138.03 43.99 165.97 68.68 180.9C73.74 183.88 79.03 186.79 85.09 189.46C168.34 150.39 169.95 82.81 169.95 82.81V38.11C169.95 29.19 163.14 21.72 154.25 20.96L154.24 20.97Z" fill="url(#paint0_linear_1285_24)"/>
<path style="mix-blend-mode:overlay" opacity="0.3" d="M85.46 11.14C85.46 7.45997 85.11 3.84997 84.46 0.339966C62.82 14.72 33.52 19.44 15.72 20.97C6.82 21.74 0 29.19 0 38.12V74.29C4.8 75.24 9.79 75.75 14.9 75.75C53.87 75.75 85.46 46.82 85.46 11.13V11.14Z" fill="url(#paint1_linear_1285_24)"/>
<path style="mix-blend-mode:multiply" d="M154.22 20.97C136.29 19.42 106.66 14.66 84.97 0V83.6C85.13 83.77 85.3 83.93 85.46 84.1C97.1 73.56 115.29 70.66 128.97 79.05C132.7 81.24 135.95 84.09 138.58 87.38C140.38 89.64 139.81 92.98 137.4 94.58C125.3 78.63 99.05 80.83 91.73 99.82C90.46 102.58 87.71 103.93 84.97 103.9V189.42C84.97 189.42 85.04 189.45 85.08 189.47C168.33 150.4 169.94 82.82 169.94 82.82V38.12C169.94 29.18 163.12 21.73 154.22 20.96V20.97Z" fill="url(#paint2_linear_1285_24)"/>
<g style="mix-blend-mode:screen" opacity="0.1">
<path d="M15.72 34.6C33.65 33.05 63.28 28.29 84.97 13.63C106.66 28.29 136.29 33.05 154.22 34.6C163.12 35.37 169.94 42.82 169.94 51.75V38.12C169.94 29.18 163.12 21.73 154.22 20.96C136.29 19.42 106.65 14.65 84.97 -0.0100098C63.29 14.66 33.66 19.42 15.72 20.97C6.82 21.74 0 29.19 0 38.12V51.75C0 42.81 6.82 35.36 15.72 34.59V34.6Z" fill="white"/>
</g>
<path d="M106.61 49.37C112.87 50.58 117.31 55.03 118.52 61.28C118.59 61.66 119.11 61.66 119.19 61.28C120.4 55.02 124.85 50.58 131.1 49.37C131.48 49.3 131.48 48.78 131.1 48.7C124.84 47.49 120.4 43.04 119.19 36.79C119.12 36.41 118.6 36.41 118.52 36.79C117.31 43.05 112.86 47.49 106.61 48.7C106.23 48.77 106.23 49.29 106.61 49.37Z" fill="white"/>
<g style="mix-blend-mode:multiply" opacity="0.1">
<path d="M17.84 121.81C0.58 94.7 0 71.44 0 71.44V38.12V82.82C0 82.82 0.45 101.24 12.72 124.41C14.11 127.03 18.1 125.88 17.91 122.92C17.88 122.55 17.87 122.17 17.85 121.8L17.84 121.81Z" fill="black"/>
<path d="M169.94 38.12V71.44C169.94 71.44 168.32 139.08 84.97 178.14C65.75 169.13 50.92 158.6 39.41 147.74C45.52 161.34 55.53 172.98 68.67 180.92C73.73 183.9 79.02 186.81 85.08 189.48C168.33 150.41 169.94 82.83 169.94 82.83V38.13V38.12Z" fill="black"/>
</g>
<path d="M114.61 79.1C128.16 79.51 135.73 87.55 139.14 92.53C139.91 90.89 139.79 88.9 138.58 87.38C135.95 84.09 132.7 81.24 128.97 79.05C115.29 70.66 97.09 73.55 85.46 84.1C65.03 61.75 26.46 70.46 18.81 102.74C17.42 109.27 17.36 116.45 17.9 122.93C18.17 127.22 18.76 131.44 19.62 135.58C19.7 135.94 19.84 136.28 20.05 136.58C23.33 141.39 27.17 146.29 31.61 151.19C26.66 137.65 18.09 106.48 35.77 88.26C52.34 71.19 73.78 81.33 82.54 91.75C83.84 93.29 86.19 93.33 87.49 91.79C91.58 86.94 100.64 78.69 114.6 79.11L114.61 79.1Z" fill="url(#paint3_linear_1285_24)"/>
<path style="mix-blend-mode:overlay" opacity="0.3" d="M57.17 13.02C41.98 17.88 26.67 20.03 15.73 20.97C6.82 21.74 0 29.19 0 38.12V69.73C31.42 69.73 56.92 44.38 57.17 13.01V13.02Z" fill="url(#paint4_linear_1285_24)"/>
</g>
<defs>
<linearGradient id="paint0_linear_1285_24" x1="10.88" y1="-0.950003" x2="150.64" y2="138.81" gradientUnits="userSpaceOnUse">
<stop stop-color="#E753FF"/>
<stop offset="1" stop-color="#3154F1"/>
</linearGradient>
<linearGradient id="paint1_linear_1285_24" x1="0" y1="38.04" x2="85.46" y2="38.04" gradientUnits="userSpaceOnUse">
<stop stop-color="#DBDBDB"/>
<stop offset="1" stop-color="white" stop-opacity="0"/>
</linearGradient>
<linearGradient id="paint2_linear_1285_24" x1="13.88" y1="153.8" x2="113.16" y2="75.71" gradientUnits="userSpaceOnUse">
<stop stop-opacity="0.3"/>
<stop offset="1" stop-color="#3161F1" stop-opacity="0"/>
</linearGradient>
<linearGradient id="paint3_linear_1285_24" x1="124.58" y1="52.99" x2="-14.87" y2="173.47" gradientUnits="userSpaceOnUse">
<stop stop-color="#DBDBDB"/>
<stop offset="1" stop-color="white" stop-opacity="0"/>
</linearGradient>
<linearGradient id="paint4_linear_1285_24" x1="0" y1="41.37" x2="57.17" y2="41.37" gradientUnits="userSpaceOnUse">
<stop stop-color="#DBDBDB"/>
<stop offset="1" stop-color="white" stop-opacity="0"/>
</linearGradient>
<clipPath id="clip0_1285_24">
<rect width="170" height="189" fill="white"/>
</clipPath>
</defs>
</svg>
