<svg width="119" height="135" viewBox="0 0 119 135" fill="none" xmlns="http://www.w3.org/2000/svg">
<path d="M22.4879 3.65989C22.4879 2.19141 23.6793 1 25.1478 1C46.0667 1 65.7444 9.15145 80.5622 23.9471C81.0665 24.4514 81.338 25.1163 81.338 25.8256C81.338 26.5349 81.0609 27.1999 80.5622 27.7042C80.2907 27.9757 79.9748 28.1807 79.6257 28.3082V28.4911H78.6781C77.9854 28.4911 77.326 28.2195 76.794 27.7153C62.9903 13.9171 44.6481 6.31978 25.1478 6.31978C23.6793 6.31978 22.4879 5.12837 22.4879 3.65989ZM74.9543 29.555C74.9044 29.5051 74.8434 29.4553 74.788 29.4109C61.5107 16.2057 43.8834 8.92979 25.1478 8.92979C23.6793 8.92979 22.4879 10.1212 22.4879 11.5897C22.4879 13.0582 23.6793 14.2496 25.1478 14.2496C42.5424 14.2496 58.9007 21.0212 71.2027 33.3232L71.2526 33.3731L71.308 33.4174C83.5435 45.7083 90.2763 62.0223 90.2763 79.3614C90.2763 80.8299 91.4677 82.0213 92.9362 82.0213C94.4047 82.0213 95.5961 80.8299 95.5961 79.3614C95.5961 60.5538 88.2648 42.8655 74.9543 29.555ZM69.0526 34.8803C57.2771 23.2544 41.6779 16.8485 25.1312 16.8485C23.6627 16.8485 22.4713 18.0399 22.4713 19.5084C22.4713 20.9769 23.6627 22.1683 25.1312 22.1683C40.4366 22.1683 54.8111 28.1142 65.5948 38.92C65.6613 38.9865 65.7222 39.0309 65.7776 39.0752C76.4283 49.8311 82.3133 64.0726 82.3576 79.1897C82.3465 79.2562 82.341 79.3171 82.341 79.3836C82.341 94.678 76.395 109.047 65.5892 119.847C64.553 120.883 64.553 122.568 65.5892 123.599C66.1157 124.103 66.7751 124.369 67.4622 124.375C68.1937 124.375 68.842 124.103 69.3408 123.604C81.0831 111.862 87.5832 96.2573 87.6497 79.6496C87.6663 79.5443 87.6718 79.4556 87.6718 79.367C87.6718 62.6651 81.1662 46.9607 69.3574 35.1519C69.2632 35.0577 69.1579 34.969 69.0471 34.8859L69.0526 34.8803ZM79.742 79.0899C79.67 64.7542 74.0953 51.2497 64.0432 41.048C63.96 40.9316 63.8714 40.8318 63.7772 40.7321C53.4479 30.4195 39.7329 24.7451 25.1534 24.7451C23.6849 24.7451 22.4935 25.9365 22.4935 27.4049C22.4935 28.8734 23.6849 30.0648 25.1534 30.0648C38.2921 30.0648 50.6495 35.174 59.9536 44.4559L60.0035 44.5114C69.3186 53.8265 74.4444 66.2005 74.4444 79.367V79.3836C74.4444 92.5445 69.3186 104.924 60.0035 114.239C50.6883 123.554 38.3087 128.68 25.1478 128.68C23.6793 128.68 22.4879 129.872 22.4879 131.34C22.4879 132.809 23.6793 134 25.1478 134H27.4863L27.4198 133.939C41.0074 133.379 53.7306 127.871 63.4613 118.279C63.5777 118.196 63.6774 118.107 63.7716 118.013C74.0842 107.684 79.7642 93.9687 79.7642 79.3891C79.7642 79.2894 79.7531 79.1952 79.742 79.101V79.0899ZM54.4122 108.642C53.3759 109.679 53.3759 111.358 54.4122 112.394C54.9386 112.898 55.598 113.164 56.2852 113.17C57.0166 113.17 57.665 112.898 58.1637 112.399C66.9857 103.594 71.8455 91.8685 71.8455 79.3836V79.306C71.8289 66.86 66.9746 55.1564 58.1637 46.3456C58.1083 46.2902 58.0529 46.2458 57.9975 46.2015C49.2087 37.4793 37.544 32.6804 25.1478 32.6804C23.6793 32.6804 22.4879 33.8718 22.4879 35.3403C22.4879 36.8088 23.6793 38.0002 25.1478 38.0002C36.203 38.0002 46.5987 42.3059 54.4122 50.1193L54.462 50.1692L54.5174 50.2135C62.2644 58.0325 66.5257 68.3839 66.5257 79.367V79.3836C66.5257 90.4388 62.22 100.835 54.4066 108.648L54.4122 108.642ZM25.1312 45.8967C34.0695 45.8967 42.4814 49.3823 48.8042 55.7051L48.8541 55.7549L48.904 55.7937C55.1658 62.1054 58.6126 70.473 58.6126 79.3614C58.6126 80.8188 59.7984 82.0103 61.2558 82.0213C62.7243 82.0158 63.9102 80.8188 63.9102 79.3614C63.9102 69.0267 59.8982 59.3125 52.6167 51.9978L52.5613 51.9313C45.2411 44.6111 35.4992 40.5769 25.1367 40.5769C23.6683 40.5769 22.4769 41.7683 22.4769 43.2368C22.4769 44.7053 23.6627 45.8967 25.1312 45.8967ZM22.4879 51.1555C22.4879 52.624 23.6793 53.8154 25.1478 53.8154C31.9749 53.8154 38.3863 56.4753 43.2129 61.2964C43.7449 61.8006 44.4099 62.0722 45.097 62.0722C45.8229 62.0722 46.4768 61.8062 46.9811 61.2964C48.0173 60.2601 48.0173 58.5755 46.9811 57.5448C41.146 51.7097 33.3935 48.4956 25.1423 48.4956C23.6738 48.4956 22.4824 49.6871 22.4824 51.1555H22.4879Z" fill="url(#paint0_radial_1_47)" style=""/>
<defs>
<radialGradient id="paint0_radial_1_47" cx="0" cy="0" r="1" gradientUnits="userSpaceOnUse" gradientTransform="translate(59.0337 67.5028) scale(106.03 202.623)">
<stop offset="0.383" stop-color="#00A3FF" style="stop-color:#00A3FF;stop-color:color(display-p3 0.0000 0.6392 1.0000);stop-opacity:1;"/>
<stop offset="0.705" stop-color="#0057FF" style="stop-color:#0057FF;stop-color:color(display-p3 0.0000 0.3412 1.0000);stop-opacity:1;"/>
</radialGradient>
</defs>
</svg>
