<svg width="18" height="17" viewBox="0 0 18 17" fill="none" xmlns="http://www.w3.org/2000/svg">
<path d="M4.1375 0.819987C4.1375 0.643327 4.28083 0.5 4.45748 0.5C6.97405 0.5 9.34128 1.48063 11.1239 3.26055C11.1845 3.32122 11.2172 3.40121 11.2172 3.48654C11.2172 3.57187 11.1839 3.65187 11.1239 3.71253C11.0912 3.7452 11.0532 3.76986 11.0112 3.7852V3.8072H10.8972C10.8139 3.8072 10.7346 3.77453 10.6706 3.71387C9.00996 2.05394 6.80339 1.13997 4.45748 1.13997C4.28083 1.13997 4.1375 0.996646 4.1375 0.819987ZM10.4492 3.93519C10.4432 3.92919 10.4359 3.92319 10.4292 3.91786C8.83197 2.32926 6.71139 1.45396 4.45748 1.45396C4.28083 1.45396 4.1375 1.59729 4.1375 1.77395C4.1375 1.95061 4.28083 2.09393 4.45748 2.09393C6.55006 2.09393 8.51798 2.90857 9.99792 4.3885L10.0039 4.3945L10.0106 4.39984C11.4825 5.87844 12.2925 7.84103 12.2925 9.92694C12.2925 10.1036 12.4358 10.2469 12.6125 10.2469C12.7891 10.2469 12.9325 10.1036 12.9325 9.92694C12.9325 7.66437 12.0505 5.53646 10.4492 3.93519ZM9.73926 4.57583C8.32266 3.17722 6.44607 2.40659 4.45548 2.40659C4.27883 2.40659 4.1355 2.54991 4.1355 2.72657C4.1355 2.90323 4.27883 3.04656 4.45548 3.04656C6.29674 3.04656 8.026 3.76186 9.32328 5.06181C9.33128 5.06981 9.33861 5.07514 9.34528 5.08048C10.6266 6.37442 11.3345 8.08768 11.3399 9.90627C11.3385 9.91427 11.3379 9.92161 11.3379 9.92961C11.3379 11.7695 10.6226 13.4981 9.32262 14.7974C9.19795 14.9221 9.19795 15.1247 9.32262 15.2487C9.38595 15.3094 9.46528 15.3414 9.54794 15.342C9.63594 15.342 9.71393 15.3094 9.77393 15.2494C11.1865 13.8368 11.9685 11.9595 11.9765 9.96161C11.9785 9.94894 11.9792 9.93827 11.9792 9.92761C11.9792 7.91836 11.1965 6.0291 9.77593 4.6085C9.7646 4.59716 9.75193 4.5865 9.7386 4.5765L9.73926 4.57583ZM11.0252 9.89428C11.0165 8.16968 10.3459 6.54508 9.13662 5.3178C9.12662 5.3038 9.11596 5.2918 9.10462 5.2798C7.86201 4.03919 6.21208 3.35655 4.45815 3.35655C4.28149 3.35655 4.13816 3.49988 4.13816 3.67653C4.13816 3.85319 4.28149 3.99652 4.45815 3.99652C6.03875 3.99652 7.52536 4.61116 8.64464 5.72778L8.65064 5.73445C9.77126 6.85507 10.3879 8.34367 10.3879 9.92761V9.92961C10.3879 11.5129 9.77126 13.0021 8.65064 14.1228C7.53002 15.2434 6.04075 15.86 4.45748 15.86C4.28083 15.86 4.1375 16.0034 4.1375 16.18C4.1375 16.3567 4.28083 16.5 4.45748 16.5H4.73881L4.73081 16.4927C6.36541 16.4253 7.89601 15.7627 9.06663 14.6087C9.08063 14.5987 9.09262 14.5881 9.10396 14.5767C10.3446 13.3341 11.0279 11.6842 11.0279 9.93027C11.0279 9.91827 11.0265 9.90694 11.0252 9.89561V9.89428ZM7.97801 13.4495C7.85334 13.5741 7.85334 13.7761 7.97801 13.9008C8.04134 13.9614 8.12067 13.9934 8.20333 13.9941C8.29132 13.9941 8.36932 13.9614 8.42932 13.9014C9.49061 12.8422 10.0753 11.4315 10.0753 9.92961V9.92027C10.0733 8.423 9.48928 7.01506 8.42932 5.95511C8.42265 5.94844 8.41599 5.94311 8.40932 5.93777C7.35203 4.88848 5.94876 4.31117 4.45748 4.31117C4.28083 4.31117 4.1375 4.4545 4.1375 4.63116C4.1375 4.80782 4.28083 4.95115 4.45748 4.95115C5.78743 4.95115 7.03804 5.46913 7.97801 6.40909L7.984 6.41509L7.99067 6.42042C8.92263 7.36105 9.43528 8.60633 9.43528 9.92761V9.92961C9.43528 11.2596 8.9173 12.5102 7.97734 13.4501L7.97801 13.4495ZM4.45548 5.90111C5.53077 5.90111 6.54273 6.32042 7.30337 7.08106L7.30937 7.08706L7.31537 7.09173C8.06867 7.85103 8.48332 8.85765 8.48332 9.92694C8.48332 10.1023 8.62598 10.2456 8.8013 10.2469C8.97796 10.2463 9.12062 10.1023 9.12062 9.92694C9.12062 8.68366 8.63798 7.51504 7.76201 6.63508L7.75535 6.62708C6.87472 5.74645 5.70277 5.26114 4.45615 5.26114C4.27949 5.26114 4.13616 5.40446 4.13616 5.58112C4.13616 5.75778 4.27883 5.90111 4.45548 5.90111ZM4.1375 6.53375C4.1375 6.71041 4.28083 6.85374 4.45748 6.85374C5.27878 6.85374 6.05009 7.17372 6.63073 7.7537C6.69473 7.81436 6.77472 7.84703 6.85738 7.84703C6.94471 7.84703 7.02338 7.81503 7.08404 7.7537C7.2087 7.62904 7.2087 7.42638 7.08404 7.30238C6.38207 6.60041 5.44944 6.21376 4.45682 6.21376C4.28016 6.21376 4.13683 6.35709 4.13683 6.53375H4.1375Z" fill="url(#paint0_radial_1_59)" style=""/>
<defs>
<radialGradient id="paint0_radial_1_59" cx="0" cy="0" r="1" gradientUnits="userSpaceOnUse" gradientTransform="translate(8.53398 8.50033) scale(12.7555 24.3757)">
<stop offset="0.383" stop-color="#00A3FF" style="stop-color:#00A3FF;stop-color:color(display-p3 0.0000 0.6392 1.0000);stop-opacity:1;"/>
<stop offset="0.705" stop-color="#0057FF" style="stop-color:#0057FF;stop-color:color(display-p3 0.0000 0.3412 1.0000);stop-opacity:1;"/>
</radialGradient>
</defs>
</svg>
