<svg width="17" height="17" viewBox="0 0 17 17" fill="none" xmlns="http://www.w3.org/2000/svg">
<g clip-path="url(#clip0_1341_1057)">
<path d="M14.7615 1.90227C13.1541 1.76421 10.496 1.33659 8.55153 0.0223389C6.60794 1.33659 3.95076 1.76332 2.34336 1.90227C1.54549 1.9713 0.934082 2.63918 0.934082 3.43974V7.44704C0.934082 7.44704 0.974424 9.09837 2.07441 11.1746C2.19902 11.4095 2.55672 11.3064 2.53969 11.0411C2.49128 10.4601 2.49576 9.81645 2.62127 9.23105C3.30618 6.33719 6.76483 5.55635 8.59635 7.56C9.63986 6.6151 11.2706 6.35512 12.497 7.10727C12.8314 7.3036 13.1227 7.5591 13.3585 7.85404C13.5199 8.05665 13.4688 8.35607 13.2527 8.49951C12.168 7.06962 9.81467 7.26684 9.15845 8.96927C8.93164 9.46055 8.18128 9.45427 7.95536 8.97106C6.91723 7.03914 4.21253 7.59854 3.89697 9.74204C3.63788 12.3965 4.87773 14.9013 7.09115 16.2398C7.54477 16.5069 8.01901 16.7678 8.56228 17.0072C16.0255 13.5046 16.1699 7.44614 16.1699 7.44614V3.43885C16.1699 2.63918 15.5594 1.96951 14.7624 1.90137L14.7615 1.90227Z" fill="url(#paint0_linear_1341_1057)"/>
<path style="mix-blend-mode:overlay" opacity="0.3" d="M8.59545 1.02106C8.59545 0.691155 8.56408 0.367523 8.5058 0.0528564C6.56581 1.342 3.9391 1.76515 2.34336 1.90231C1.54549 1.97134 0.934082 2.63922 0.934082 3.43978V6.68237C1.3644 6.76754 1.81174 6.81326 2.26985 6.81326C5.76345 6.81326 8.59545 4.21972 8.59545 1.02017V1.02106Z" fill="url(#paint1_linear_1341_1057)"/>
<path style="mix-blend-mode:multiply" d="M14.7597 1.90227C13.1523 1.76331 10.496 1.33659 8.55151 0.0223389V7.51696C8.56586 7.5322 8.5811 7.54655 8.59544 7.56179C9.63895 6.61689 11.2697 6.35691 12.4961 7.10906C12.8304 7.30539 13.1218 7.56089 13.3576 7.85583C13.5189 8.05844 13.4678 8.35787 13.2518 8.50131C12.167 7.07141 9.81377 7.26864 9.15754 8.97106C9.04368 9.21849 8.79715 9.33952 8.55151 9.33683V17.0036C8.55151 17.0036 8.55779 17.0063 8.56138 17.0081C16.0246 13.5055 16.169 7.44704 16.169 7.44704V3.43974C16.169 2.63829 15.5576 1.9704 14.7597 1.90137V1.90227Z" fill="url(#paint2_linear_1341_1057)"/>
<g style="mix-blend-mode:screen" opacity="0.1">
<path d="M2.34336 3.12422C3.95076 2.98527 6.60705 2.55854 8.55153 1.24429C10.496 2.55854 13.1523 2.98527 14.7597 3.12422C15.5576 3.19325 16.169 3.86113 16.169 4.6617V3.43979C16.169 2.63833 15.5576 1.97045 14.7597 1.90142C13.1523 1.76336 10.4951 1.33573 8.55153 0.0214844C6.60794 1.33663 3.95165 1.76336 2.34336 1.90231C1.54549 1.97134 0.934082 2.63922 0.934082 3.43979V4.6617C0.934082 3.86024 1.54549 3.19236 2.34336 3.12333V3.12422Z" fill="white"/>
</g>
<path d="M10.4915 4.44837C11.0527 4.55685 11.4507 4.95578 11.5592 5.51609C11.5655 5.55015 11.6121 5.55015 11.6193 5.51609C11.7277 4.95489 12.1267 4.55685 12.687 4.44837C12.7211 4.4421 12.7211 4.39548 12.687 4.38831C12.1258 4.27983 11.7277 3.8809 11.6193 3.32059C11.613 3.28653 11.5664 3.28653 11.5592 3.32059C11.4507 3.88179 11.0518 4.27983 10.4915 4.38831C10.4574 4.39458 10.4574 4.4412 10.4915 4.44837Z" fill="white"/>
<g style="mix-blend-mode:multiply" opacity="0.1">
<path d="M2.53341 10.9425C0.986078 8.51214 0.934082 6.42691 0.934082 6.42691V3.43982V7.44711C0.934082 7.44711 0.974424 9.09844 2.07441 11.1756C2.19902 11.4105 2.55672 11.3074 2.53969 11.042C2.537 11.0089 2.5361 10.9748 2.53431 10.9416L2.53341 10.9425Z" fill="black"/>
<path d="M16.169 3.43982V6.42691C16.169 6.42691 16.0238 12.4907 8.55155 15.9924C6.82851 15.1847 5.49902 14.2407 4.46716 13.2671C5.01492 14.4863 5.9123 15.5298 7.09028 16.2416C7.5439 16.5088 8.01815 16.7697 8.56142 17.009C16.0247 13.5065 16.169 7.44801 16.169 7.44801V3.44072V3.43982Z" fill="black"/>
</g>
<path d="M11.2087 7.11361C12.4235 7.15037 13.1021 7.87114 13.4078 8.31759C13.4769 8.17057 13.4661 7.99217 13.3576 7.8559C13.1218 7.56096 12.8305 7.30546 12.4961 7.10913C11.2697 6.35698 9.6381 6.61606 8.59549 7.56186C6.76397 5.55821 3.30622 6.33905 2.62041 9.23291C2.4958 9.81831 2.49042 10.462 2.53883 11.0429C2.56303 11.4275 2.61593 11.8058 2.69302 12.177C2.7002 12.2092 2.71275 12.2397 2.73157 12.2666C3.02562 12.6978 3.36987 13.1371 3.76791 13.5764C3.32415 12.3625 2.55586 9.56819 4.14085 7.93479C5.62633 6.40449 7.54839 7.31353 8.33372 8.24767C8.45026 8.38573 8.66093 8.38931 8.77748 8.25125C9.14414 7.81646 9.95636 7.07686 11.2078 7.11451L11.2087 7.11361Z" fill="url(#paint3_linear_1341_1057)"/>
<path style="mix-blend-mode:overlay" opacity="0.3" d="M6.05929 1.18962C4.69753 1.62531 3.32501 1.81805 2.34425 1.90232C1.54549 1.97135 0.934082 2.63924 0.934082 3.4398V6.27359C3.75084 6.27359 6.03688 4.001 6.05929 1.18872V1.18962Z" fill="url(#paint4_linear_1341_1057)"/>
</g>
<defs>
<linearGradient id="paint0_linear_1341_1057" x1="1.90946" y1="-0.0628276" x2="14.4388" y2="12.4665" gradientUnits="userSpaceOnUse">
<stop stop-color="#E753FF"/>
<stop offset="1" stop-color="#3154F1"/>
</linearGradient>
<linearGradient id="paint1_linear_1341_1057" x1="0.934082" y1="3.43261" x2="8.59545" y2="3.43261" gradientUnits="userSpaceOnUse">
<stop stop-color="#DBDBDB"/>
<stop offset="1" stop-color="white" stop-opacity="0"/>
</linearGradient>
<linearGradient id="paint2_linear_1341_1057" x1="2.17839" y1="13.8103" x2="11.0787" y2="6.80964" gradientUnits="userSpaceOnUse">
<stop stop-opacity="0.3"/>
<stop offset="1" stop-color="#3161F1" stop-opacity="0"/>
</linearGradient>
<linearGradient id="paint3_linear_1341_1057" x1="12.1025" y1="4.77289" x2="-0.398957" y2="15.5738" gradientUnits="userSpaceOnUse">
<stop stop-color="#DBDBDB"/>
<stop offset="1" stop-color="white" stop-opacity="0"/>
</linearGradient>
<linearGradient id="paint4_linear_1341_1057" x1="0.934082" y1="3.73116" x2="6.05929" y2="3.73116" gradientUnits="userSpaceOnUse">
<stop stop-color="#DBDBDB"/>
<stop offset="1" stop-color="white" stop-opacity="0"/>
</linearGradient>
<clipPath id="clip0_1341_1057">
<rect width="17" height="17" fill="white"/>
</clipPath>
</defs>
</svg>
