<svg width="300" height="280" viewBox="0 0 300 280" fill="none" xmlns="http://www.w3.org/2000/svg">
<g clip-path="url(#clip0_1_13)">
<path d="M150 279C226.768 279 289 216.768 289 140C289 63.2324 226.768 1 150 1C73.2324 1 11 63.2324 11 140C11 216.768 73.2324 279 150 279Z" fill="#2D9CDB" style="fill:#2D9CDB;fill:color(display-p3 0.1765 0.6118 0.8588);fill-opacity:1;"/>
<path d="M248.708 156.611C247.638 154.939 246.066 153.992 244.402 153.232C237.894 150.512 230.887 149.65 224.052 148.712C219.812 148.22 215.565 147.816 211.314 147.486V60.9243C211.314 57.5266 210.233 54.7466 208.225 52.7389C206.218 50.7312 203.438 49.65 200.04 49.65C196.797 49.65 194.017 50.7312 191.7 52.8935C189.692 54.9012 188.611 57.6812 188.611 61.0789V121.003C183.515 114.671 177.182 109.729 169.769 106.177C162.355 102.624 154.324 100.771 145.675 100.771C135.019 100.771 125.289 103.397 116.485 108.802C107.991 114.208 101.195 121.621 96.0989 131.042C93.4017 136.1 91.4443 141.572 90.2194 147.358C85.4562 147.705 80.6974 148.144 75.9458 148.7C71.8183 149.207 67.6964 149.841 63.5403 150.761C60.6458 151.429 57.5177 152.223 54.7519 153.629C51.8215 155.088 49.4799 157.931 51.0295 161.338C52.2719 163.823 54.7842 165.013 57.1441 166.021C59.28 166.894 61.3525 167.502 63.4272 168.06C71.9927 170.202 80.6829 171.47 89.3993 172.422C90.5091 180.082 92.9272 187.296 96.7169 193.901C102.123 203.168 109.536 210.581 118.803 216.141C128.224 221.547 138.726 224.173 150.155 224.173C161.584 224.173 171.777 221.547 181.044 216.141C190.465 210.581 197.724 203.168 203.129 193.901C206.93 187.277 209.427 180.116 210.578 172.423C215.117 171.911 219.653 171.306 224.191 170.575C230.472 169.496 236.79 168.398 242.851 166.01C244.789 165.18 246.495 164.396 248.021 162.746C249.573 161.099 249.913 158.543 248.708 156.612V156.611ZM150 148.489C160.486 148.489 170.713 148.699 180.379 149.102C182.876 149.302 185.372 149.509 187.865 149.733C188.578 152.273 189.064 154.913 189.32 157.67C197.263 157.213 204.679 156.619 211.314 155.905V152.294C219.255 153.377 227.312 154.602 235.015 156.626C237.445 157.309 239.734 157.975 241.869 159.094C239.679 160.117 237.367 160.692 234.901 161.275C223.125 163.818 210.962 164.769 198.887 165.629C174.487 167.179 149.971 167.428 125.529 166.745C105.353 165.996 84.8824 165.299 65.101 161.263C62.6494 160.674 60.3381 160.123 58.1652 159.09C60.2939 157.983 62.5696 157.317 64.9879 156.637C72.7285 154.604 80.8305 153.374 88.8114 152.289C88.9987 152.265 89.1861 152.242 89.3732 152.217C89.2042 153.446 89.0632 154.686 88.9568 155.938C95.5846 156.649 102.95 157.236 110.831 157.687C111.084 154.924 111.565 152.27 112.272 149.729C114.789 149.503 117.309 149.294 119.83 149.093C129.434 148.696 139.59 148.489 149.999 148.489L150 148.489ZM56.8975 159.93C56.8886 159.943 56.8786 159.957 56.8731 159.968C56.8661 159.977 56.8569 159.984 56.8458 159.99C56.8469 159.989 56.8567 159.982 56.86 159.977C56.8639 159.967 56.8783 159.95 56.8975 159.93ZM115.713 141.235C119.266 134.903 124.053 129.961 129.922 126.409C135.946 122.702 142.741 120.849 150.155 120.849C157.568 120.849 164.363 122.702 170.232 126.409C176.256 129.961 181.043 134.903 184.441 141.235C185.335 142.902 186.109 144.613 186.767 146.372C184.649 146.338 182.53 146.325 180.411 146.321C170.73 145.918 160.492 145.709 150 145.709C139.508 145.709 129.231 145.919 119.533 146.323C117.476 146.327 115.419 146.34 113.363 146.37C114.027 144.595 114.808 142.882 115.713 141.235V141.235ZM184.441 183.708C181.043 190.04 176.256 195.137 170.232 198.843C164.209 202.396 157.568 204.249 150.155 204.249C142.741 204.249 136.1 202.55 129.922 198.843C124.053 195.137 119.266 190.04 115.713 183.708C114.125 180.747 112.912 177.615 112.068 174.316C137.052 175.828 162.124 175.769 187.112 174.371C187.438 174.352 187.763 174.331 188.088 174.311C187.244 177.612 186.031 180.746 184.441 183.708H184.441Z" fill="white" style="fill:white;fill-opacity:1;"/>
</g>
<defs>
<clipPath id="clip0_1_13">
<rect width="278" height="278" fill="white" style="fill:white;fill-opacity:1;" transform="translate(11 1)"/>
</clipPath>
</defs>
</svg>
