<svg width="119" height="135" viewBox="0 0 119 135" fill="none" xmlns="http://www.w3.org/2000/svg">
<g clip-path="url(#clip0_1_12)">
<path d="M59.0337 124.931C91.0662 124.931 117.034 99.2184 117.034 67.5C117.034 35.7815 91.0662 10.0686 59.0337 10.0686C27.0012 10.0686 1.03369 35.7815 1.03369 67.5C1.03369 99.2184 27.0012 124.931 59.0337 124.931Z" fill="#2D9CDB" style="fill:#2D9CDB;fill:color(display-p3 0.1765 0.6118 0.8588);fill-opacity:1;"/>
<path d="M100.221 74.3633C99.7748 73.6722 99.1189 73.281 98.4246 72.9672C95.709 71.8434 92.7852 71.4871 89.9332 71.0994C88.1637 70.8964 86.3917 70.7293 84.6181 70.593V34.8278C84.6181 33.424 84.167 32.2753 83.3292 31.4458C82.4915 30.6163 81.3315 30.1696 79.9137 30.1696C78.5603 30.1696 77.4003 30.6163 76.4337 31.5097C75.596 32.3392 75.1448 33.4878 75.1448 34.8917V59.6509C73.0182 57.0346 70.376 54.9927 67.2826 53.5249C64.1892 52.0572 60.8381 51.2916 57.2292 51.2916C52.7826 51.2916 48.7226 52.3763 45.0492 54.6098C41.5047 56.8433 38.6692 59.9063 36.5426 63.7988C35.4172 65.8884 34.6004 68.1496 34.0893 70.5399C32.1018 70.6835 30.1161 70.8649 28.1334 71.0946C26.4111 71.3039 24.6912 71.5661 22.957 71.9459C21.7492 72.222 20.444 72.5502 19.2899 73.1311C18.0672 73.734 17.0901 74.9085 17.7367 76.3161C18.2551 77.3431 19.3034 77.8347 20.2881 78.2513C21.1793 78.6118 22.0441 78.8632 22.9098 79.0935C26.4839 79.9788 30.11 80.5026 33.7471 80.8959C34.2102 84.0609 35.2191 87.0415 36.8005 89.7707C39.0561 93.5994 42.1493 96.6625 46.0161 98.9597C49.9472 101.193 54.3294 102.278 59.0983 102.278C63.8672 102.278 68.1206 101.193 71.9872 98.9597C75.9183 96.6625 78.9472 93.5994 81.2027 89.7707C82.7886 87.0337 83.8306 84.075 84.3107 80.8963C86.2049 80.6849 88.0975 80.4348 89.9911 80.1329C92.612 79.6868 95.2483 79.2334 97.7775 78.2467C98.586 77.9039 99.2978 77.5796 99.9345 76.8979C100.582 76.2175 100.724 75.1613 100.221 74.3635V74.3633ZM59.0337 71.0073C63.4092 71.0073 67.6766 71.094 71.71 71.2608C72.7518 71.3431 73.7931 71.4287 74.8335 71.5212C75.1308 72.5708 75.3339 73.6615 75.4405 74.8007C78.7549 74.6119 81.8494 74.3666 84.6181 74.0715V72.5796C87.9316 73.0268 91.2934 73.5331 94.5074 74.3692C95.5214 74.6515 96.4765 74.9269 97.3676 75.3893C96.4536 75.8119 95.4891 76.0493 94.4601 76.2902C89.5463 77.3408 84.4711 77.7339 79.4327 78.089C69.2515 78.7297 59.0214 78.8327 48.8228 78.5504C40.404 78.241 31.8623 77.9527 23.6082 76.2851C22.5852 76.0421 21.6208 75.8143 20.7142 75.3875C21.6024 74.9302 22.5519 74.6549 23.561 74.3741C26.7909 73.5338 30.1716 73.0258 33.5018 72.5775C33.5799 72.5674 33.6581 72.5579 33.7362 72.5478C33.6657 73.0555 33.6069 73.5677 33.5624 74.0851C36.328 74.3788 39.4015 74.6214 42.6898 74.8077C42.7952 73.6662 42.9962 72.5696 43.2909 71.5198C44.3415 71.4265 45.3929 71.3402 46.4449 71.2571C50.4523 71.0927 54.6899 71.0074 59.0335 71.0074L59.0337 71.0073ZM20.1852 75.7345C20.1815 75.7399 20.1773 75.7455 20.175 75.7501C20.1721 75.7539 20.1683 75.757 20.1636 75.7593C20.1641 75.7589 20.1681 75.7559 20.1695 75.7538C20.1712 75.7498 20.1772 75.7428 20.1852 75.7345ZM44.7271 68.0104C46.2093 65.3941 48.2071 63.3521 50.656 61.8844C53.1693 60.353 56.0048 59.5872 59.0982 59.5872C62.1916 59.5872 65.0271 60.353 67.476 61.8844C69.9893 63.3521 71.9871 65.3942 73.4048 68.0104C73.778 68.6991 74.1008 69.406 74.3755 70.1325C73.4915 70.1188 72.6074 70.1134 71.7233 70.1117C67.6836 69.9453 63.4118 69.8587 59.0337 69.8587C54.6556 69.8587 50.3675 69.9456 46.3207 70.1126C45.4625 70.1142 44.6042 70.1196 43.7463 70.132C44.0232 69.3986 44.3493 68.6905 44.7271 68.0103V68.0104ZM73.4048 85.5589C71.9871 88.1752 69.9893 90.281 67.476 91.8126C64.9626 93.2803 62.1915 94.046 59.0982 94.046C56.0049 94.046 53.2337 93.3441 50.656 91.8126C48.2071 90.2811 46.2093 88.1752 44.7271 85.5589C44.0641 84.3356 43.5582 83.0417 43.2059 81.6786C53.6308 82.303 64.0925 82.2789 74.5194 81.7013C74.6552 81.6933 74.7909 81.6847 74.9267 81.6765C74.5743 83.0404 74.0682 84.335 73.4049 85.5589H73.4048Z" fill="white" style="fill:white;fill-opacity:1;"/>
</g>
<defs>
<clipPath id="clip0_1_12">
<rect width="116" height="114.863" fill="white" style="fill:white;fill-opacity:1;" transform="translate(1.03369 10.0686)"/>
</clipPath>
</defs>
</svg>
